<mxfile host="app.diagrams.net" agent="Mozilla/5.0 (X11; Linux x86_64; rv:134.0) Gecko/20100101 Firefox/134.0" version="26.0.16">
  <diagram name="Page-1" id="Ym-k7kuXtUE4SdIuobNa">
    <mxGraphModel dx="1434" dy="749" grid="1" gridSize="10" guides="1" tooltips="1" connect="1" arrows="1" fold="1" page="1" pageScale="1" pageWidth="850" pageHeight="1100" math="0" shadow="0">
      <root>
        <mxCell id="0" />
        <mxCell id="1" parent="0" />
        <mxCell id="0EQQBWe9SRgsHL3JL3QX-3" value="" style="edgeStyle=orthogonalEdgeStyle;rounded=0;orthogonalLoop=1;jettySize=auto;html=1;" edge="1" parent="1" source="0EQQBWe9SRgsHL3JL3QX-1" target="0EQQBWe9SRgsHL3JL3QX-2">
          <mxGeometry relative="1" as="geometry" />
        </mxCell>
        <mxCell id="0EQQBWe9SRgsHL3JL3QX-1" value="Bubble sort" style="ellipse;whiteSpace=wrap;html=1;" vertex="1" parent="1">
          <mxGeometry x="380" y="40" width="120" height="80" as="geometry" />
        </mxCell>
        <mxCell id="0EQQBWe9SRgsHL3JL3QX-9" value="" style="edgeStyle=orthogonalEdgeStyle;rounded=0;orthogonalLoop=1;jettySize=auto;html=1;" edge="1" parent="1" source="0EQQBWe9SRgsHL3JL3QX-2" target="0EQQBWe9SRgsHL3JL3QX-8">
          <mxGeometry relative="1" as="geometry" />
        </mxCell>
        <mxCell id="0EQQBWe9SRgsHL3JL3QX-2" value="array, length" style="shape=parallelogram;perimeter=parallelogramPerimeter;whiteSpace=wrap;html=1;fixedSize=1;" vertex="1" parent="1">
          <mxGeometry x="380" y="160" width="120" height="60" as="geometry" />
        </mxCell>
        <mxCell id="0EQQBWe9SRgsHL3JL3QX-7" value="" style="edgeStyle=orthogonalEdgeStyle;rounded=0;orthogonalLoop=1;jettySize=auto;html=1;" edge="1" parent="1" source="0EQQBWe9SRgsHL3JL3QX-4" target="0EQQBWe9SRgsHL3JL3QX-6">
          <mxGeometry relative="1" as="geometry" />
        </mxCell>
        <mxCell id="0EQQBWe9SRgsHL3JL3QX-24" style="edgeStyle=orthogonalEdgeStyle;rounded=0;orthogonalLoop=1;jettySize=auto;html=1;entryX=0.5;entryY=0;entryDx=0;entryDy=0;" edge="1" parent="1" source="0EQQBWe9SRgsHL3JL3QX-4" target="0EQQBWe9SRgsHL3JL3QX-23">
          <mxGeometry relative="1" as="geometry" />
        </mxCell>
        <mxCell id="0EQQBWe9SRgsHL3JL3QX-4" value="Repeat length times" style="shape=hexagon;perimeter=hexagonPerimeter2;whiteSpace=wrap;html=1;fixedSize=1;" vertex="1" parent="1">
          <mxGeometry x="380" y="360" width="120" height="80" as="geometry" />
        </mxCell>
        <mxCell id="0EQQBWe9SRgsHL3JL3QX-14" value="" style="edgeStyle=orthogonalEdgeStyle;rounded=0;orthogonalLoop=1;jettySize=auto;html=1;" edge="1" parent="1" source="0EQQBWe9SRgsHL3JL3QX-6" target="0EQQBWe9SRgsHL3JL3QX-13">
          <mxGeometry relative="1" as="geometry" />
        </mxCell>
        <mxCell id="0EQQBWe9SRgsHL3JL3QX-22" style="edgeStyle=orthogonalEdgeStyle;rounded=0;orthogonalLoop=1;jettySize=auto;html=1;entryX=0;entryY=0.5;entryDx=0;entryDy=0;" edge="1" parent="1" source="0EQQBWe9SRgsHL3JL3QX-6" target="0EQQBWe9SRgsHL3JL3QX-4">
          <mxGeometry relative="1" as="geometry">
            <Array as="points">
              <mxPoint x="340" y="520" />
              <mxPoint x="340" y="400" />
            </Array>
          </mxGeometry>
        </mxCell>
        <mxCell id="0EQQBWe9SRgsHL3JL3QX-6" value="Repeat length times" style="shape=hexagon;perimeter=hexagonPerimeter2;whiteSpace=wrap;html=1;fixedSize=1;" vertex="1" parent="1">
          <mxGeometry x="380" y="480" width="120" height="80" as="geometry" />
        </mxCell>
        <mxCell id="0EQQBWe9SRgsHL3JL3QX-10" value="" style="edgeStyle=orthogonalEdgeStyle;rounded=0;orthogonalLoop=1;jettySize=auto;html=1;" edge="1" parent="1" source="0EQQBWe9SRgsHL3JL3QX-8" target="0EQQBWe9SRgsHL3JL3QX-4">
          <mxGeometry relative="1" as="geometry" />
        </mxCell>
        <mxCell id="0EQQBWe9SRgsHL3JL3QX-8" value="&lt;div&gt;int i = 0&lt;/div&gt;&lt;div&gt;int temp&lt;br&gt;&lt;/div&gt;" style="rounded=0;whiteSpace=wrap;html=1;" vertex="1" parent="1">
          <mxGeometry x="380" y="260" width="120" height="60" as="geometry" />
        </mxCell>
        <mxCell id="0EQQBWe9SRgsHL3JL3QX-20" style="edgeStyle=orthogonalEdgeStyle;rounded=0;orthogonalLoop=1;jettySize=auto;html=1;entryX=1;entryY=0.5;entryDx=0;entryDy=0;" edge="1" parent="1" source="0EQQBWe9SRgsHL3JL3QX-11" target="0EQQBWe9SRgsHL3JL3QX-6">
          <mxGeometry relative="1" as="geometry">
            <Array as="points">
              <mxPoint x="540" y="770" />
              <mxPoint x="620" y="770" />
              <mxPoint x="620" y="520" />
            </Array>
          </mxGeometry>
        </mxCell>
        <mxCell id="0EQQBWe9SRgsHL3JL3QX-11" value="&lt;div&gt;temp = array[i+1]&lt;/div&gt;&lt;div&gt;array[i+1] = array[i]&lt;/div&gt;&lt;div&gt;array[i] = temp&lt;/div&gt;&lt;div&gt;i = i+1&lt;br&gt;&lt;/div&gt;" style="rounded=0;whiteSpace=wrap;html=1;" vertex="1" parent="1">
          <mxGeometry x="480" y="690" width="120" height="60" as="geometry" />
        </mxCell>
        <mxCell id="0EQQBWe9SRgsHL3JL3QX-19" style="edgeStyle=orthogonalEdgeStyle;rounded=0;orthogonalLoop=1;jettySize=auto;html=1;" edge="1" parent="1" source="0EQQBWe9SRgsHL3JL3QX-13">
          <mxGeometry relative="1" as="geometry">
            <mxPoint x="540" y="690" as="targetPoint" />
          </mxGeometry>
        </mxCell>
        <mxCell id="0EQQBWe9SRgsHL3JL3QX-21" style="edgeStyle=orthogonalEdgeStyle;rounded=0;orthogonalLoop=1;jettySize=auto;html=1;" edge="1" parent="1" source="0EQQBWe9SRgsHL3JL3QX-13">
          <mxGeometry relative="1" as="geometry">
            <mxPoint x="540" y="770" as="targetPoint" />
            <Array as="points">
              <mxPoint x="360" y="640" />
              <mxPoint x="360" y="770" />
            </Array>
          </mxGeometry>
        </mxCell>
        <mxCell id="0EQQBWe9SRgsHL3JL3QX-13" value="&lt;div&gt;array[i]&lt;/div&gt;&lt;div&gt;&amp;gt;&lt;/div&gt;&lt;div&gt;array[i+1]&lt;br&gt;&lt;/div&gt;" style="rhombus;whiteSpace=wrap;html=1;" vertex="1" parent="1">
          <mxGeometry x="380" y="600" width="120" height="80" as="geometry" />
        </mxCell>
        <mxCell id="0EQQBWe9SRgsHL3JL3QX-17" value="Yes" style="text;html=1;align=center;verticalAlign=middle;resizable=0;points=[];autosize=1;strokeColor=none;fillColor=none;" vertex="1" parent="1">
          <mxGeometry x="461" y="588" width="40" height="30" as="geometry" />
        </mxCell>
        <mxCell id="0EQQBWe9SRgsHL3JL3QX-18" value="No" style="text;html=1;align=center;verticalAlign=middle;resizable=0;points=[];autosize=1;strokeColor=none;fillColor=none;" vertex="1" parent="1">
          <mxGeometry x="371" y="588" width="40" height="30" as="geometry" />
        </mxCell>
        <mxCell id="0EQQBWe9SRgsHL3JL3QX-26" value="" style="edgeStyle=orthogonalEdgeStyle;rounded=0;orthogonalLoop=1;jettySize=auto;html=1;" edge="1" parent="1" source="0EQQBWe9SRgsHL3JL3QX-23" target="0EQQBWe9SRgsHL3JL3QX-25">
          <mxGeometry relative="1" as="geometry" />
        </mxCell>
        <mxCell id="0EQQBWe9SRgsHL3JL3QX-23" value="array" style="shape=parallelogram;perimeter=parallelogramPerimeter;whiteSpace=wrap;html=1;fixedSize=1;" vertex="1" parent="1">
          <mxGeometry x="660" y="440" width="120" height="60" as="geometry" />
        </mxCell>
        <mxCell id="0EQQBWe9SRgsHL3JL3QX-25" value="END" style="ellipse;whiteSpace=wrap;html=1;" vertex="1" parent="1">
          <mxGeometry x="660" y="540" width="120" height="80" as="geometry" />
        </mxCell>
      </root>
    </mxGraphModel>
  </diagram>
</mxfile>
